# xmcd
#
# Track frame offsets:
#	150
#	13548
#	28629
#	40235
#	54647
#	72352
#	94480
#	111322
#	125184
#	137449
#	151788
#	179845
#	193623
#	206967
#	223325
#	241032
#
# Disc length: 3383 seconds
#
# Revision: 0
# Processed by: cddbd v1.5.2PL0 Copyright (c) Steve Scherf et al.
# Submitted via: EasyCDDAExtractor 15.3.0.1
#
DISCID=f40d3510
DTITLE=MEHO PUZIĆ - FOLK ZVIJEZDE ZAUVIJEK
DYEAR=2012
DGENRE=BOSNIAN
TTITLE0=SNIJEG PADE NA BEHAR, NA VOĆE
TTITLE1=U ĐUL BAŠTI 
TTITLE2=BUDILA MAJKA MEHMEDA
TTITLE3=ČUDNA JADA, OD MOSTARA GRADA
TTITLE4=KAD JA POĐOH NA BEMBAŠU
TTITLE5=PROPIO SE DUJČIN PETAR
TTITLE6=SEDAMDESET I DVA DANA
TTITLE7=PUT PUTUJE LATIF-AGA
TTITLE8=TREPETLJIKA TREPETALA 
TTITLE9=ŠTA ĆU KUĆI TAKO RANO
TTITLE10=PITA HANKA HALIL MEHANDŽIJU
TTITLE11=NA PUT SE SPREMAM
TTITLE12=KOJA GORA, IVO
TTITLE13=KO TI KUPI FATO, BELENZUKE
TTITLE14=VOLIO SAM CURU PLAVU
TTITLE15=SALKO SE VIJA, PREVIJA
EXTD=
EXTT0=
EXTT1=
EXTT2=
EXTT3=
EXTT4=
EXTT5=
EXTT6=
EXTT7=
EXTT8=
EXTT9=
EXTT10=
EXTT11=
EXTT12=
EXTT13=
EXTT14=
EXTT15=
PLAYORDER=
